<?xml version="1.0" encoding="UTF-8"?>
<svg version="1.1" xmlns="http://www.w3.org/2000/svg" width="2000" height="1600">
<path d="M0 0 C0.33 0 0.66 0 1 0 C0.98428955 0.83660156 0.9685791 1.67320312 0.95239258 2.53515625 C0.90090995 5.6736416 0.86347892 8.81190988 0.83520508 11.95068359 C0.81290592 13.96336248 0.77476347 15.97584584 0.73632812 17.98828125 C0.65787994 28.39574077 1.72732887 35.36580799 8.96484375 43.171875 C16.6183172 50.04678014 24.10646482 51.28869344 34.08544922 51.21386719 C40.55402425 50.86046369 46.74497447 49.49776961 53.0625 48.125 C77.79675222 43.01344982 112.48600387 36.48646467 136 49 C140.8099526 52.8786406 142.65703708 58.11550131 143.37109375 64.12109375 C143.69236989 80.16600199 136.93644509 93.48153656 129 107 C128.34 107.66 127.68 108.32 127 109 C126.40165446 110.52056618 125.86493344 112.06612088 125.375 113.625 C124.98441406 114.85089844 124.98441406 114.85089844 124.5859375 116.1015625 C124.39257812 116.72804688 124.19921875 117.35453125 124 118 C124.59087402 117.73896484 125.18174805 117.47792969 125.79052734 117.20898438 C194.02783075 87.31180406 270.08790676 82.62842365 340.1953125 109.31640625 C358.41849055 116.51422557 376.08719296 125.51632439 392 137 C393.03688965 137.73790771 393.03688965 137.73790771 394.09472656 138.49072266 C409.7005881 149.61852329 423.7779443 161.62511294 437.375 175.125 C438.29063721 176.03121094 439.20627441 176.93742188 440.1496582 177.87109375 C446.18973639 183.94026619 451.68770159 190.28838412 457 197 C457.88102885 198.08372501 458.76243997 199.16713957 459.64453125 200.25 C484.15513016 231.34092187 497.36599253 265.41091622 504.75 304.02734375 C504.90069443 304.81359131 505.05138885 305.59983887 505.20664978 306.40991211 C505.94776266 310.29127469 506.67498242 314.17439697 507.37719727 318.06298828 C511.21783741 338.9396986 516.65173555 358.76441248 534.87109375 371.68359375 C538.76299941 374.09014826 542.85130328 376.07867734 547 378 C543.59119733 373.89878429 540.20240321 370.06500519 536.0625 366.6875 C518.28581901 351.49463892 515.09598794 327.80858965 511.33520508 306.08178711 C510.80899171 303.04223513 510.27347283 300.00443437 509.73632812 296.96679688 C509.3926955 295.01051033 509.04957798 293.05413322 508.70703125 291.09765625 C508.54975052 290.20168228 508.39246979 289.30570831 508.23042297 288.38258362 C506.07769958 275.92206468 505.03463215 264.09367122 507.3125 251.5625 C507.43012695 250.90056641 507.54775391 250.23863281 507.66894531 249.55664062 C509.05293611 242.56943388 511.52511947 237.67072936 517.05859375 233.2578125 C523.0445906 229.37956102 531.09235184 229.13654398 538 230 C545.62826025 231.9622281 549.68140024 236.10466032 555 241.75 C556.51833973 243.33052429 558.03915149 244.90867774 559.5625 246.484375 C560.30185791 247.24935303 561.04121582 248.01433105 561.80297852 248.80249023 C565.05024212 252.05047554 568.50295127 255.02661383 572 258 C577.79354966 263.10109352 583.43374338 268.15956989 588.3671875 274.11328125 C590.46036059 276.53194777 592.72172646 278.75647979 595 281 C595.12117188 280.12859375 595.24234375 279.2571875 595.3671875 278.359375 C595.71947992 275.85538886 596.08219182 273.35285519 596.453125 270.8515625 C596.77842638 268.56051136 597.07189666 266.26400525 597.296875 263.9609375 C598.37507266 254.64222917 602.56897451 247.12011184 607 239 C607.33 239.66 607.66 240.32 608 241 C609.32 241 610.64 241 612 241 C611.5260632 246.40287958 610.6823236 251.52612574 609.49609375 256.8203125 C607.93106624 264.30670327 607.40918038 271.61643333 607.38916016 279.25415039 C607.37487108 281.33124078 607.30696707 283.40259631 607.23828125 285.47851562 C607.08837705 294.75830286 608.99331817 299.97358703 615 307 C616.54859213 309.66185042 618.00935186 312.34317912 619.4453125 315.06640625 C620.89575814 317.16346725 620.89575814 317.16346725 623.35546875 318.08984375 C626.20287579 318.25927133 626.20287579 318.25927133 628.54296875 315.9375 C629.85201172 314.4834375 629.85201172 314.4834375 631.1875 313 C636.013279 307.83421547 641.07578547 303.87894999 647 300 C648.33753077 299.02657483 649.67134747 298.0480088 651 297.0625 C654 295 654 295 656 295 C655.48780158 298.90613858 654.70507333 300.76928948 651.796875 303.41796875 C651.14799316 304.02793701 650.49911133 304.63790527 649.83056641 305.26635742 C649.14397949 305.90033447 648.45739258 306.53431152 647.75 307.1875 C640.64524675 313.99518169 634.50881922 320.96836308 633.8581543 331.23901367 C633.84695557 332.04056885 633.83575684 332.84212402 633.82421875 333.66796875 C633.80037109 334.56193359 633.77652344 335.45589844 633.75195312 336.37695312 C633.70943742 338.23089568 633.67794399 340.08512821 633.65820312 341.93945312 C633.37764513 351.05432568 630.57248909 358.57688566 624 365 C618.43235865 369.25526875 612.88961387 369.44178397 606.05078125 369.43359375 C602.52642184 368.93269248 600.71451738 368.31448324 598 366 C596.84765625 362.91796875 596.84765625 362.91796875 596.0625 359.1875 C593.45432539 348.11011428 589.01135328 338.49096966 583.125 328.8125 C570.38656779 307.72482773 564.22646521 283.89241239 559 260 C558.03580717 288.37425073 567.26191884 312.7502745 580.21972656 337.31201172 C590.42534082 356.7238121 593.41388086 375.22526821 593 397 C583.65519759 394.50247446 574.88926208 390.76401469 566 387 C581.77646318 404.0103765 610.61696909 409.41157903 632.53125 413.3515625 C634.38957797 413.69895264 636.24768369 414.06822985 638.0703125 414.5703125 C640.82961193 415.1847314 643.55193835 415.15955867 646.375 415.25 C651.64080729 415.58114871 655.85274772 416.49115615 660.75 418.4375 C667.05014671 420.91508578 672.77821893 421.6987469 679.45019531 422.25708008 C685.12426675 422.77495168 689.96849208 424.1805123 695.31640625 426.17578125 C701.2408566 427.99537226 707.03904799 427.28885449 713 426 C717.06834059 425.69295543 720.0452054 425.89383138 723.75 427.5 C729.49165549 429.88205668 736.12502556 429.95832481 742 428 C748.66675926 427.18127518 751.95764364 428.7522184 757.41015625 432.58984375 C763.22323864 435.75503642 768.18344551 434.97156436 774.375 433.375 C780.74730683 431.89546193 785.14064414 432.00579172 791 435 C796.79185569 437.75113145 802.32078679 437.77940748 808.4375 436 C815.93203211 433.89627169 821.11263677 434.25129396 828 438 C833.54136874 441.0051269 837.75225679 442.134989 844 441 C845.3696939 440.49889247 846.72551531 439.9577882 848.0625 439.375 C852.79491173 437.4008003 856.29390856 438.21212853 861 440 C863.03407056 440.99419565 865.05442814 442.01678711 867.0625 443.0625 C873.20056978 446.20884056 877.24708374 448.09439881 884.02734375 446.1171875 C885.13207031 445.74851562 886.23679687 445.37984375 887.375 445 C893.26434616 443.06405576 898.01180243 441.96846286 904 444 C906.75936123 445.60530132 909.25722774 447.3456223 911.7734375 449.30859375 C916.88257191 453.18974322 920.73839023 453.39702236 927 453 C927.804375 452.835 928.60875 452.67 929.4375 452.5 C937.1698619 450.99124646 943.3873635 451.63120195 950 456 C951.299375 457.051875 951.299375 457.051875 952.625 458.125 C959.17015089 463.29222439 966.82696443 462.09899275 974.68164062 461.74609375 C982.29796863 461.56787272 988.11987518 462.99204483 994.20703125 467.7109375 C994.73683594 468.26007813 995.26664063 468.80921875 995.8125 469.375 C1002.37179653 475.4287381 1010.24664819 478.60566108 1018.75 481 C1027.59165005 483.57441839 1032.41226096 488.16986889 1038.2421875 495.05859375 C1042.88538851 500.18675131 1048.46298851 503.29342191 1054.5625 506.4375 C1062.82753686 510.79404192 1067.45254654 516.20383437 1072.984375 523.5546875 C1075.31174159 526.37819813 1077.8595375 528.84275317 1080.5 531.375 C1089.97771307 540.60940748 1095.40025594 552.19213157 1101 564 C1101.52907959 565.10601563 1101.52907959 565.10601563 1102.06884766 566.234375 C1120.46637797 604.98359908 1117.49015684 648.53878099 1103.85302734 688.50366211 C1096.46704059 709.01056845 1083.64748859 727.01562379 1068.44238281 742.52246094 C1066.87765343 744.12532861 1065.34203379 745.75368435 1063.8046875 747.3828125 C1055.27027386 756.30162588 1046.01221563 763.8037951 1036 771 C1035.41234863 771.43231934 1034.82469727 771.86463867 1034.21923828 772.31005859 C1021.74321441 781.44370901 1007.7956068 788.11814528 994 795 C992.99839844 795.50208984 991.99679687 796.00417969 990.96484375 796.52148438 C967.87876196 808.03311564 944.13332226 817.11561877 919.75 825.4375 C918.22850342 825.95816544 918.22850342 825.95816544 916.67626953 826.48934937 C884.90738621 837.3274528 884.90738621 837.3274528 876 837 C876.30803243 833.85820358 876.59481609 832.38439733 878.92260742 830.17602539 C884.89664046 826.24769391 890.94365503 822.68682936 897.3125 819.4375 C898.78033936 818.67723511 898.78033936 818.67723511 900.27783203 817.90161133 C906.42387029 814.74503144 912.62893226 811.7339678 918.87750244 808.78625488 C946.48134405 795.75826925 972.0327335 780.20599684 995 760 C995.75667969 759.34257813 996.51335937 758.68515625 997.29296875 758.0078125 C998.59025865 756.87864334 999.88358816 755.74489892 1001.171875 754.60546875 C1002.44147521 753.49049933 1003.72374914 752.38986264 1005.015625 751.30078125 C1009.83779291 747.20561957 1013.96945445 742.86961823 1018 738 C1018.46567383 737.44666992 1018.93134766 736.89333984 1019.41113281 736.32324219 C1037.14168273 715.23019247 1054.34987848 691.37135449 1053.38671875 662.4765625 C1051.36343672 644.28746141 1043.18558091 629.56679131 1029.25 617.796875 C1017.81963383 608.66845758 1002.72273334 601.09534085 988.125 599.0625 C984.49833559 598.49974173 981.26030924 597.85492623 977.875 596.4375 C972.21065721 594.11065379 966.29290519 593.93347011 960.23046875 594.109375 C955.70367725 594.12899216 951.66644091 593.08055746 947.3125 591.9375 C940.56800159 590.28926001 935.0076835 589.89209821 928.06640625 590.76953125 C923.68529143 591.09881249 919.69339573 590.25346928 915.390625 589.484375 C907.32964315 588.33280616 899.1308572 588.69875706 891.0625 589.625 C886.93605755 590.06994874 883.90360065 589.66570915 879.95703125 588.4921875 C874.6296196 587.15235942 869.72559198 587.58159553 864.625 589.5 C855.31335288 592.85090415 847.83336392 591.02396896 838.9453125 587.19140625 C832.0336252 584.39556457 824.88227823 584.158868 817.6875 586 C809.4080739 587.96242453 802.44926597 587.79861183 794.5625 584.5 C788.27266531 581.9868585 783.10964739 581.76213166 776.375 582 C768.7968473 582.26709499 763.96082756 581.59514737 757.125 578.08984375 C752.93383468 576.62817484 749.26672504 576.8659669 744.875 577.0625 C736.85173491 577.40789617 730.76117968 575.9699083 723.29199219 573.13964844 C717.91019808 571.14683332 713.54813357 570.65590356 707.78125 570.96484375 C700.05209236 571.06254378 693.04174045 568.09480675 686.125 564.9375 C681.32164078 562.7704521 677.30300125 561.61537385 672.0625 561.125 C664.17722807 560.2665585 658.39457274 556.92098624 651.67626953 552.9765625 C646.28150381 549.83367539 640.97689841 547.17424129 634.9375 545.5625 C630.48976077 544.33242212 627.19861006 542.42191405 623.49609375 539.6953125 C616.52887689 534.96327476 608.98324484 531.5264247 601.25 528.25 C600.33089844 527.85167969 599.41179688 527.45335937 598.46484375 527.04296875 C597.12873047 526.47255859 597.12873047 526.47255859 595.765625 525.890625 C594.57114746 525.38063965 594.57114746 525.38063965 593.35253906 524.86035156 C579.18321629 519.67846142 560.47321871 523.32706581 547 529 C542.14348137 531.36491342 537.51626815 534.0783843 532.90234375 536.8828125 C511.21307915 549.82026858 488.01687611 555.33233589 463.26196289 559.12573242 C454.03389563 560.59737065 443.08595994 562.44548705 436 569 C433.77474716 572.74982053 432.79601233 576.16694417 433.28125 580.52734375 C434.62085185 585.7023533 436.80107351 589.3194836 440.13378906 593.41796875 C448.59476505 605.12431125 453.54523128 618.93669111 458.3125 632.4375 C459.20482856 634.92637186 460.10072665 637.41393769 460.99702454 639.90138245 C461.56715504 641.4856987 462.13523497 643.07075463 462.70109558 644.65660095 C464.16496228 648.74810131 465.69398052 652.79431197 467.3515625 656.8125 C471.92778607 668.09373317 469.34905013 677.97475723 466.85009766 689.46240234 C465.45752154 696.07243089 464.4767519 702.42546864 464.4375 709.1875 C464.42340088 709.89865967 464.40930176 710.60981934 464.39477539 711.3425293 C464.49029712 716.29584158 465.79637264 719.25966823 469 723 C471.20432018 724.37711889 471.20432018 724.37711889 473.75 725.0625 C474.70777344 725.37316406 475.66554688 725.68382812 476.65234375 726.00390625 C477.75707031 726.33261719 478.86179687 726.66132812 480 727 C482.06617199 727.61592235 484.1313489 728.23456647 486.19433594 728.86108398 C487.57310217 729.27697048 488.95519745 729.68202541 490.34082031 730.07446289 C495.95078396 731.73970247 500.52528434 733.8370837 503.875 738.75 C504.24625 739.4925 504.6175 740.235 505 741 C504.34 741.33 503.68 741.66 503 742 C501.01073115 741.13006601 499.05759524 740.17697023 497.125 739.1875 C489.65772245 735.63438882 482.81211852 734.54850235 474.67578125 733.62109375 C463.46809784 732.17620077 457.3398956 728.35317669 449.125 720.80859375 C445.26051822 717.51952194 441.9917092 716.03905312 436.8125 715.9375 C424.6781826 719.31919501 413.39824899 726.73791269 406 737 C404.87001766 740.38994703 404.99278604 742.70856582 405.1484375 746.2734375 C405.74157529 765.69140729 403.56676807 782.33694475 398 801 C396.68 801.33 395.36 801.66 394 802 C391.83429648 794.35634053 391.39242146 786.87644895 393.51586914 779.11425781 C394.03807922 776.83370346 394.12941447 774.81074307 394.1328125 772.47265625 C394.13466553 771.60431152 394.13651855 770.7359668 394.13842773 769.84130859 C394.13178101 768.46579834 394.13178101 768.46579834 394.125 767.0625 C394.1237915 766.11971191 394.12258301 765.17692383 394.12133789 764.20556641 C394.08708523 758.05378927 393.73857181 751.99963718 393.1484375 745.875 C392.94464707 741.92790113 393.37946565 738.14680572 393.94140625 734.2421875 C394.22305934 731.71032148 394.22305934 731.71032148 392 729 C386.59020408 728.25747899 382.49800602 729.40227282 377.3125 731 C366.0070619 734.38724381 353.5484527 734.00772822 342 732 C334.60296717 731.70823768 327.31363168 731.82981893 320 733 C320.24993016 729.62594278 321.23278839 728.7777929 323.75 726.375 C328.45380428 722.48817226 332.79517314 721.76358662 338.8125 721.9453125 C340.14972849 721.97064445 341.48696871 721.99536336 342.82421875 722.01953125 C344.89963863 722.06865649 346.9744176 722.12416493 349.04931641 722.19189453 C360.43219304 722.5391502 373.03557662 721.93991785 382 714 C382 713.01 382 712.02 382 711 C380.7315625 711.03480469 380.7315625 711.03480469 379.4375 711.0703125 C371.84487975 711.19110419 365.92791131 710.57524686 358.71484375 708.26953125 C352.20514574 706.23718496 345.74685733 704.98536576 339 704 C339 703.01 339 702.02 339 701 C346.27561595 697.65929068 354.14098617 698.78652592 361.9375 699.5 C372.87530987 700.48783885 384.02891924 701.28533902 394 696 C394.53272566 692.95585339 394.4977664 690.81592637 392.86328125 688.13671875 C389.33432267 683.8729165 385.34519826 680.68253281 380.875 677.4375 C376.12990389 673.97679081 372.7524593 671.21001225 370 666 C369.6875 662.5625 369.6875 662.5625 370 660 C375.24777751 660.26238888 377.95762048 662.22272072 381.91015625 665.37109375 C387.37292125 669.62898722 392.44978745 673.25011013 399.5625 672.921875 C400.44164062 672.89609375 401.32078125 672.8703125 402.2265625 672.84375 C404.07611425 672.78122994 405.92520368 672.70308826 407.7734375 672.609375 C410.2726877 672.55074156 412.54197338 672.53940932 415 673 C417.17307484 675.44470919 418 676.73411172 418 680 C418.99 680 419.98 680 421 680 C419.39537441 671.68128312 417.10600676 665.71899216 412 659 C410.77797584 657.36055175 409.55686162 655.720359 408.34985352 654.06982422 C407.53330036 652.95517418 406.70675844 651.84771861 405.86694336 650.75048828 C397.95830911 640.02111315 393.69429695 627.87190639 389.85610962 615.26925659 C385.8876154 602.27312961 381.6149337 589.70177159 375.64453125 577.46484375 C371.63706248 569.02155444 371.88884097 559.60561845 374.625 550.75 C380.47467951 535.36675977 391.93769665 529.05899648 405.60400391 521.27563477 C411.02295697 518.18098495 416.33157491 514.96529514 421.5625 511.5625 C422.25730469 511.11084473 422.95210937 510.65918945 423.66796875 510.19384766 C427.22898656 507.86187558 430.75532235 505.4871186 434.25390625 503.0625 C442.56082367 497.33806815 450.99767343 492.18816936 459.9375 487.5 C460.87223145 487.00765869 461.80696289 486.51531738 462.77001953 486.00805664 C484.18186179 475.02533996 502.14447789 475.77005703 525 482 C525.66 482.33 526.32 482.66 527 483 C527 482.34 527 481.68 527 481 C526.14792969 480.7215625 525.29585937 480.443125 524.41796875 480.15625 C521.02014 479.00681308 517.67200874 477.75646393 514.3125 476.5 C494.35447878 469.37063309 478.1829581 472.74640401 459.3918457 481.35351562 C450.51182002 485.56396916 442.17141315 490.55239123 434 496 C427.44116249 496.61111595 422.69251255 495.1591272 416.6875 492.625 C415.39078369 492.08915283 415.39078369 492.08915283 414.06787109 491.54248047 C383.72344894 478.72035039 358.74145107 459.3923849 339 433 C338.51192871 432.35095703 338.02385742 431.70191406 337.52099609 431.03320312 C327.36541875 417.45738766 318.16111597 403.25597016 309 389 C308.4548877 388.15324707 307.90977539 387.30649414 307.34814453 386.43408203 C302.4163156 378.75468032 297.59995945 371.00913301 292.87109375 363.203125 C292.50931534 362.60615814 292.14753693 362.00919128 291.77479553 361.39413452 C289.92509408 358.33953817 288.08085027 355.2818111 286.24438477 352.21923828 C283.10993375 347.00714028 279.95565051 341.8394334 276.46875 336.8515625 C267.96141978 324.68183058 267.96141978 324.68183058 268.84375 315.69921875 C269.25441933 308.60490605 265.33475213 303.03719205 260.9375 297.8125 C246.34315981 282.59813882 226.26649415 277.90944486 205.9375 276.9375 C197.91796578 276.53109109 190.11489187 276.0572236 182.24121094 274.41674805 C179.47017716 273.90148066 176.81032174 273.84809072 174 274 C177.61596472 278.76649896 182.39516807 279.7766173 188 281 C192.49215506 281.51634366 196.98450911 281.72676066 201.5 281.9375 C223.61528509 283.27343903 242.57652956 286.88087693 258 304 C261.76224876 309.46893881 263.3967568 314.37416149 263 321 C261.2442652 328.53117824 257.0373895 334.28470094 252 340 C251.17435547 340.96679688 251.17435547 340.96679688 250.33203125 341.953125 C236.80419486 356.64560956 216.88566289 365.44233878 199.64208984 374.82763672 C172.58221285 388.52804026 172.58221285 388.52804026 155.6953125 412.5625 C153.56817512 420.01943104 155.30304729 426.27927104 159 433 C163.24856804 438.78704672 169.34547284 442.40702592 175.328125 446.203125 C179.36654235 448.91901971 179.36654235 448.91901971 181 451 C181 451.99 181 452.98 181 454 C170.87157932 452.6429883 156.89105191 445.24967744 150.59375 437.203125 C148.71240319 434.33521827 147.1946491 431.44984122 145.83203125 428.30078125 C143.5525024 422.69899354 143.5525024 422.69899354 138.625 419.625 C129.79100415 420.53886164 125.30690431 426.46921659 120 433 C119.39671875 433.78761719 118.7934375 434.57523438 118.171875 435.38671875 C113.78603167 441.10858578 109.02992799 445.81129584 103.66650391 450.58227539 C99.26884089 454.56794136 95.8846504 458.78391982 93 464 C92.01 463.67 91.02 463.34 90 463 C91.7799005 451.13399669 98.30820287 442.54964059 105.99926758 433.72680664 C112.67937091 426.0075503 117 419.42920765 117 409 C109.68090816 406.39765623 102.23608448 406.03202639 94.6875 408 C85.68122206 410.26369643 75.83558221 409.69560135 67 407 C66.67 406.34 66.34 405.68 66 405 C68.46984093 401.17174656 68.46984093 401.17174656 70.86523438 400.39575195 C73.60907639 399.88708682 76.36627807 399.65395723 79.14379883 399.40454102 C89.5828582 398.44294908 98.99204267 396.67646863 108 391 C108.04284584 387.61636915 108.04284584 387.61636915 107 384 C104.60570004 382.34897678 102.83498914 381.40003275 100.1875 380.375 C99.518396 380.09068115 98.84929199 379.8063623 98.15991211 379.51342773 C96.11597492 378.6506152 94.05941187 377.82505623 92 377 C89.6873485 376.02119121 87.37483038 375.04206717 85.0625 374.0625 C83.37638334 373.37161425 81.68944746 372.68270037 80 372 C79.38253906 373.08796875 78.76507812 374.1759375 78.12890625 375.296875 C70.65223682 388.32934218 62.45171937 400.13072975 52 411 C51.33145996 411.69577148 50.66291992 412.39154297 49.97412109 413.10839844 C40.22160569 423.19374277 30.45698464 432.86689422 19 441 C18.4239502 441.41507813 17.84790039 441.83015625 17.25439453 442.2578125 C1.91495425 453.22116143 -14.42475304 460.96845046 -31.99365234 467.69873047 C-48.88675459 474.19815414 -65.26945723 481.84426754 -81.65625 489.51171875 C-158.8667613 525.60239671 -158.8667613 525.60239671 -185 518 C-185 517.67 -185 517.34 -185 517 C-184.04222656 516.97421875 -183.08445312 516.9484375 -182.09765625 516.921875 C-157.32631397 515.99251649 -134.67315544 506.55936015 -112.96191406 495.03613281 C-110.86676483 493.92963538 -108.75889541 492.85042853 -106.6484375 491.7734375 C-88.83086206 482.62095011 -71.69043654 472.32384144 -54.6875 461.75 C-40.25523509 452.79233721 -25.50740803 444.92340622 -10 438 C-9.34 437.67 -8.68 437.34 -8 437 C-30.66028918 439.63357128 -51.18783554 454.78952362 -70.16821289 466.42114258 C-82.94582373 474.2422145 -95.92385238 481.6898793 -109 489 C-109.8465918 489.474375 -110.69318359 489.94875 -111.56542969 490.4375 C-131.20707725 501.3708227 -153.3910161 512.10690777 -176.25 512.25 C-177.46236328 512.2809375 -177.46236328 512.2809375 -178.69921875 512.3125 C-187.10012319 512.36626579 -194.34769997 510.49434378 -200.5625 504.66796875 C-205.59207404 498.83202279 -206.34517795 490.81792891 -206.21362305 483.38110352 C-205.16085273 471.64662478 -201.04507671 460.265178 -197.4375 449.125 C-196.69140452 446.8055372 -195.94728974 444.48546784 -195.20582581 442.16452026 C-194.74914922 440.73657262 -194.28968597 439.30951162 -193.82676697 437.88357544 C-188.26498661 420.57034938 -188.86268781 407.0189131 -196.11328125 390.45703125 C-199.87582325 380.03130914 -197.64589099 369.59383321 -193.25 359.8125 C-189.62914518 353.16748553 -185.08569353 348.48409579 -178.625 344.5625 C-167.00058477 337.43581491 -161.06319447 327.72679662 -154.32128906 316.23632812 C-148.59701236 306.54778884 -142.38490303 297.52104196 -135 289 C-134.30390625 288.16984375 -133.6078125 287.3396875 -132.890625 286.484375 C-119.69718764 271.17228346 -104.00570808 261.49351812 -85.67431641 253.42944336 C-62.20542843 243.07395727 -40.94426637 229.02844308 -19.96630859 214.3671875 C-17.09069515 212.36775426 -14.19573446 210.3970377 -11.30175781 208.42431641 C10.43018355 193.60871574 32.02927552 178.58409153 53.2902832 163.09887695 C54.36669067 162.31710083 54.36669067 162.31710083 55.46484375 161.51953125 C56.100271 161.05651611 56.73569824 160.59350098 57.39038086 160.11645508 C59 159 59 159 61 158 C61.74789071 156.31464182 62.48927499 154.62580478 63.18310547 152.91748047 C64.42215864 150.00907532 66.01004695 147.31413391 67.5625 144.5625 C71.8017355 136.85270362 75.09787144 128.80247379 78.40600586 120.65917969 C80.98757625 114.32951793 83.71453381 108.24817263 87.0390625 102.26953125 C88.13253712 99.68697534 88.18742991 97.77692214 88 95 C84.23892512 92.48297297 80.68336666 92.93521365 76.375 93.3125 C75.71371094 93.36083984 75.05242187 93.40917969 74.37109375 93.45898438 C71.50809208 93.67604496 68.65880465 93.91297281 65.81176758 94.2890625 C60.61820379 94.94172524 55.56401412 95.00409047 50.33984375 94.7734375 C49.65923889 94.74346176 48.97863403 94.71348602 48.27740479 94.68260193 C45.45140946 94.55201312 42.62614244 94.41341096 39.80151367 94.25585938 C26.71778403 93.25245492 26.71778403 93.25245492 15.16845703 98.52270508 C9.11357036 104.56322552 7.38534533 113.7150754 7 122 C7.01623212 125.67657416 7.06177996 129.34809914 7.16015625 133.0234375 C7 136 7 136 5 138 C1.29135724 132.3914378 0.21009842 127.75591903 -0.5 121.125 C-1.54444912 110.98706921 -1.54444912 110.98706921 -6 102 C-9.68056689 100.69241511 -12.00858413 101.02194208 -15.58203125 102.44140625 C-16.43216797 102.77849609 -17.28230469 103.11558594 -18.15820312 103.46289062 C-19.03412109 103.82576172 -19.91003906 104.18863281 -20.8125 104.5625 C-21.67681641 104.89830078 -22.54113281 105.23410156 -23.43164062 105.58007812 C-32.43752858 109.23001158 -38.811998 114.17668218 -44.75 121.8125 C-49.38352528 127.76520174 -49.38352528 127.76520174 -52.328125 128.88671875 C-53.15570312 128.94279297 -53.15570312 128.94279297 -54 129 C-51.73958764 115.413732 -41.1047029 107.53690777 -30.5390625 99.98046875 C-27.69635922 97.7631602 -26.20839484 96.16105695 -25.5625 92.5625 C-25.78874835 89.84771875 -25.78874835 89.84771875 -27.9375 87.875 C-36.34962763 82.72471778 -45.62899025 81.81372581 -55.3125 81.875 C-56.06160645 81.87693359 -56.81071289 81.87886719 -57.58251953 81.88085938 C-62.3139669 81.91770387 -66.94172081 82.20213306 -71.640625 82.77734375 C-76.08331101 83.19660385 -80.54243181 83.07627018 -85 83 C-78.70231148 75.91510041 -70.67852217 72.57216558 -61.23950195 71.62109375 C-59.9061363 71.55221545 -58.57234008 71.49130742 -57.23828125 71.4375 C-56.16866402 71.38227173 -56.16866402 71.38227173 -55.07743835 71.32592773 C-52.0576281 71.17005909 -49.03705342 71.03297277 -46.01635742 70.89550781 C-43.79823939 70.79177517 -41.58084105 70.6774635 -39.36328125 70.5625 C-38.04626221 70.50191406 -36.72924316 70.44132813 -35.37231445 70.37890625 C-32.32207051 70.03618717 -30.46073539 69.7980996 -28 68 C-26.88722063 64.14236484 -26.64684901 61.87514858 -28.16015625 58.125 C-30.18152406 54.69167888 -32.5398987 52.00560819 -35.375 49.25 C-35.90174316 48.73268311 -36.42848633 48.21536621 -36.97119141 47.68237305 C-45.3488116 39.6151725 -54.63762046 32.93443579 -64.59521484 26.9543457 C-68.89463576 24.31609273 -68.89463576 24.31609273 -70 21 C-64.3967932 21.53329087 -59.99778752 23.01141483 -54.9375 25.4375 C-54.20015625 25.78731934 -53.4628125 26.13713867 -52.703125 26.49755859 C-45.18420225 30.1939309 -38.66053294 34.96255147 -32 40 C-25.18358683 45.2277147 -25.18358683 45.2277147 -17 47 C-14.05688017 46.26422004 -12.5221285 45.84284797 -10.90380859 43.23046875 C-9.90297104 40.76054658 -9.56351563 38.64894075 -9.2890625 36 C-9.18078125 35.03570068 -9.0725 34.07140137 -8.9609375 33.07788086 C-8.85007812 32.06218018 -8.73921875 31.04647949 -8.625 30 C-7.3350456 19.20419027 -5.33115026 9.59607046 0 0 Z M100 298 C99.34743544 299.70577342 98.70326959 301.41476089 98.0625 303.125 C97.70285156 304.07632812 97.34320312 305.02765625 96.97265625 306.0078125 C95.24625644 311.31874524 94.91959837 316.34305387 94.81176758 321.87670898 C94.46654948 336.18893288 90.39523008 347.67173286 84.13671875 360.48828125 C82.86256404 362.84418722 82.86256404 362.84418722 83 365 C97.25012948 370.64139508 109.69131578 373.78030773 125 370 C125 369.34 125 368.68 125 368 C124.01 368 123.02 368 122 368 C120.72566842 357.32316786 120.20172929 346.48807934 126 337 C126.66 337 127.32 337 128 337 C128.01458252 337.57443848 128.02916504 338.14887695 128.04418945 338.74072266 C128.11913725 341.36945696 128.21563994 343.99698552 128.3125 346.625 C128.34633789 347.98044922 128.34633789 347.98044922 128.38085938 349.36328125 C128.59149028 354.60990567 129.08721982 358.46013064 132 363 C134.42901183 364.99525972 135.91045849 364.99634524 139.0625 365.125 C147.74705896 363.5257022 154.71773016 355.41196026 160.578125 349.34375 C166.49127158 343.62135009 173.35734765 338.89335954 180.02734375 334.09765625 C180.69942871 333.61216309 181.37151367 333.12666992 182.06396484 332.62646484 C183.36265654 331.69139413 184.66614142 330.76293219 185.97509766 329.84228516 C189.60152936 327.23911959 192.36036808 324.66652114 195 321 C191.48585093 321.42855476 188.80697545 322.08773843 185.5625 323.5625 C176.17022085 327.35236703 165.28433876 323.21157271 156.34472656 319.47021484 C153.35497109 318.05991409 150.38995485 316.61452082 147.4447937 315.11340332 C144.31622181 313.52159921 141.16227592 311.98129035 138.01171875 310.43359375 C137.39960037 310.13156036 136.78748199 309.82952698 136.15681458 309.51834106 C118.87834428 300.95787653 118.87834428 300.95787653 100 298 Z " fill="#000000" transform="translate(606,471)"/>
</svg>
